<?xml version="1.0" encoding="iso-8859-1"?>
<!-- Uploaded to: SVG Repo, www.svgrepo.com, Generator: SVG Repo Mixer Tools -->
<svg fill="#000000" height="800px" width="800px" version="1.1" id="Layer_1" xmlns="http://www.w3.org/2000/svg" xmlns:xlink="http://www.w3.org/1999/xlink" 
	 viewBox="0 0 512 512" xml:space="preserve">
<g>
	<g>
		<path d="M503.966,94.991H302.932c18.387-7.466,36.827-15.916,43.722-22.811c16.423-16.425,16.423-43.285,0-59.71
			c-7.957-7.957-18.537-12.406-29.79-12.406s-21.833,4.348-29.788,12.306c-9.678,9.677-22.545,42.076-30.736,65.173
			c-8.191-23.097-21.137-55.522-30.736-65.198V12.34C218.139,4.383,207.261,0,196.009,0c-11.252,0-21.736,4.38-29.693,12.338
			c-16.423,16.425-16.375,43.417,0.049,59.844c6.895,6.895,25.382,15.344,43.77,22.81H9.101c-4.419,0-8.532,3.048-8.532,7.466
			v401.012c0,4.418,4.114,8.532,8.532,8.532h494.865c4.419,0,7.466-4.115,7.466-8.532V102.456
			C511.432,98.039,508.384,94.991,503.966,94.991z M298.388,23.649c4.936-4.935,11.497-7.653,18.476-7.653
			c6.979,0,13.542,2.717,18.476,7.653c10.188,10.187,10.188,26.765,0.001,36.953c-7.22,7.219-39.9,20.078-66.13,29.174
			C278.306,63.549,291.165,30.873,298.388,23.649z M177.725,60.603c-10.187-10.188-10.187-26.766,0.001-36.954
			c4.935-4.935,11.497-7.653,18.476-7.653c6.979,0,13.541,2.717,18.475,7.653c0,0,0,0,0.001,0
			c7.219,7.219,20.078,39.897,29.174,66.127C217.622,80.681,184.944,67.822,177.725,60.603z M495.434,496.002H16.566V110.988
			h478.867V496.002z"/>
	</g>
</g>
<g>
	<g>
		<path d="M390.905,347.685c-17.854-17.856-43.829-23.889-67.486-16.066l-31.543-31.543l29.346-29.347l45.885-35.688
			c0.037-0.03,0.07-0.064,0.108-0.094c0.111-0.09,0.216-0.185,0.322-0.279c0.107-0.096,0.212-0.191,0.313-0.291
			c0.096-0.096,0.187-0.198,0.278-0.3c0.1-0.111,0.199-0.221,0.292-0.337c0.029-0.035,0.061-0.067,0.089-0.102l35.994-46.278
			c2.476-3.185,2.195-7.714-0.657-10.567l-20.568-20.569c-2.852-2.852-7.382-3.135-10.567-0.658l-46.278,35.995
			c-0.036,0.028-0.068,0.061-0.103,0.09c-0.114,0.092-0.223,0.19-0.333,0.288c-0.103,0.093-0.207,0.186-0.305,0.284
			s-0.191,0.202-0.285,0.305c-0.098,0.109-0.195,0.218-0.287,0.332c-0.027,0.037-0.06,0.069-0.087,0.106l-35.687,45.883
			l-29.349,29.35l-27.852-27.852c7.822-23.656,1.789-49.632-16.066-67.487c-19.158-19.158-47.664-24.705-72.62-14.134
			c-2.45,1.038-4.223,3.225-4.732,5.836c-0.51,2.611,0.314,5.305,2.195,7.185l34.619,34.619L156,225.903l-34.618-34.618
			c-1.882-1.881-4.576-2.703-7.185-2.196c-2.611,0.509-4.799,2.282-5.837,4.732c-10.571,24.958-5.023,53.464,14.135,72.62
			c17.856,17.857,43.829,23.89,67.485,16.066l27.852,27.852l-16.093,16.093c-8.29-3.711-18.373-2.193-25.169,4.601l-66.845,66.846
			c-4.259,4.259-6.604,9.92-6.604,15.941c0,6.022,2.345,11.683,6.603,15.94l20.568,20.568c4.258,4.258,9.919,6.603,15.94,6.603
			s11.683-2.345,15.94-6.603l31.351-31.351c3.124-3.124,3.124-8.189,0-11.312c-3.125-3.124-8.189-3.124-11.313,0l-31.351,31.351
			c-1.236,1.236-2.88,1.917-4.628,1.917s-3.392-0.68-4.628-1.917l-20.569-20.569c-1.236-1.236-1.918-2.88-1.918-4.628
			c0-1.748,0.682-3.392,1.919-4.629l66.845-66.846c2.553-2.551,6.704-2.552,9.257,0l20.568,20.569c2.552,2.552,2.552,6.704,0,9.256
			l-15.8,15.8c-3.124,3.124-3.124,8.189,0,11.312c3.125,3.124,8.189,3.124,11.313,0l15.8-15.801
			c6.795-6.796,8.313-16.879,4.6-25.169l16.093-16.093l31.542,31.542c-7.822,23.656-1.79,49.632,16.066,67.487
			c12.708,12.708,29.524,19.427,46.694,19.424c8.715,0,17.524-1.732,25.927-5.291c2.45-1.038,4.223-3.225,4.732-5.836
			c0.51-2.611-0.314-5.305-2.195-7.185l-35.482-35.481l19.541-19.54l35.48,35.48c1.882,1.881,4.575,2.703,7.185,2.196
			c2.611-0.509,4.799-2.282,5.837-4.732C415.611,395.347,410.063,366.842,390.905,347.685z M376.959,172.529l10.582,10.582
			l-26.096,33.552l-18.038-18.038L376.959,172.529z M332.096,209.938l18.038,18.039l-33.553,26.096L306,243.491L332.096,209.938z
			 M295.349,255.466l9.255,9.255l-24.042,24.043l-9.255-9.255L295.349,255.466z M223.361,345.965l-9.255-9.255l15.037-15.037
			l9.255,9.255L223.361,345.965z M393.749,401.948l-31.554-31.554c-3.124-3.124-8.189-3.125-11.312,0l-30.854,30.852
			c-1.5,1.5-2.342,3.534-2.342,5.656s0.843,4.156,2.342,5.656l31.556,31.555c-15.53,2.372-31.459-2.663-42.951-14.155
			c-14.526-14.526-18.731-36.142-10.715-55.07c1.27-3,0.595-6.472-1.71-8.776l-98.56-98.56c-1.532-1.531-3.577-2.343-5.659-2.343
			c-1.05,0-2.111,0.207-3.117,0.634c-18.929,8.019-40.544,3.811-55.069-10.714c-11.493-11.493-16.526-27.426-14.155-42.951
			l30.692,30.693c3.125,3.124,8.189,3.124,11.313,0l30.852-30.852c3.124-3.124,3.124-8.189,0-11.312l-30.693-30.694
			c15.524-2.368,31.459,2.663,42.95,14.155c14.526,14.526,18.732,36.142,10.716,55.07c-1.27,3-0.595,6.472,1.71,8.775l98.559,98.56
			c2.305,2.305,5.778,2.982,8.776,1.711c18.93-8.018,40.545-3.811,55.07,10.714C391.087,370.49,396.119,386.423,393.749,401.948z"/>
	</g>
</g>
</svg>