<?xml version="1.0" encoding="UTF-8"?>
<!DOCTYPE svg PUBLIC "-//W3C//DTD SVG 1.1//EN" "http://www.w3.org/Graphics/SVG/1.1/DTD/svg11.dtd">
<svg xmlns="http://www.w3.org/2000/svg" version="1.1" width="200px" height="200px" style="shape-rendering:geometricPrecision; text-rendering:geometricPrecision; image-rendering:optimizeQuality; fill-rule:evenodd; clip-rule:evenodd" xmlns:xlink="http://www.w3.org/1999/xlink">
<g><path style="opacity:0.996" fill="#da0503" d="M 111.5,40.5 C 111.167,40.5 110.833,40.5 110.5,40.5C 109.88,28.2917 113.547,17.625 121.5,8.5C 124.366,21.2284 121.033,31.895 111.5,40.5 Z"/></g>
<g><path style="opacity:0.093" fill="#450200" d="M 109.5,41.5 C 109.5,40.8333 109.833,40.5 110.5,40.5C 110.833,40.5 111.167,40.5 111.5,40.5C 111.5,42.8333 111.5,45.1667 111.5,47.5C 110.833,45.5 110.167,43.5 109.5,41.5 Z"/></g>
<g><path style="opacity:0.996" fill="#e10202" d="M 109.5,41.5 C 110.167,43.5 110.833,45.5 111.5,47.5C 113.894,57.5776 115.894,67.7443 117.5,78C 116.859,85.1907 116.026,92.3573 115,99.5C 113.901,105.678 111.734,111.345 108.5,116.5C 107.662,116.158 107.328,115.492 107.5,114.5C 109.014,108.596 110.014,102.596 110.5,96.5C 108.956,83.33 106.622,70.33 103.5,57.5C 103.31,51.2358 105.31,45.9025 109.5,41.5 Z"/></g>
<g><path style="opacity:0.659" fill="#7b0907" d="M 87.5,60.5 C 86.596,61.209 86.2627,62.209 86.5,63.5C 84.3098,60.312 81.9765,57.1454 79.5,54C 82.8049,55.1143 85.4716,57.2809 87.5,60.5 Z"/></g>
<g><path style="opacity:0.998" fill="#ee0201" d="M 87.5,60.5 C 95.1893,67.2005 100.356,75.5338 103,85.5C 103.667,89.8333 103.667,94.1667 103,98.5C 99.3175,110.044 96.1509,121.711 93.5,133.5C 94.0437,142.631 96.877,150.965 102,158.5C 100.097,150.095 100.764,141.762 104,133.5C 108.086,126.993 112.42,120.66 117,114.5C 124.244,102.364 126.411,89.3643 123.5,75.5C 123.263,74.209 123.596,73.209 124.5,72.5C 129.908,88.1422 130.741,104.142 127,120.5C 124.34,128.49 121.673,136.49 119,144.5C 113.656,159.175 118.489,168.342 133.5,172C 135.607,173.264 136.607,175.097 136.5,177.5C 123.928,180.262 111.261,182.596 98.5,184.5C 95.7087,183.27 93.0421,181.77 90.5,180C 88.4962,177.131 86.1629,174.631 83.5,172.5C 76.1104,175.401 68.9437,175.068 62,171.5C 61.6186,162.796 63.2852,154.462 67,146.5C 72.4037,134.688 78.5703,123.355 85.5,112.5C 86.9063,112.027 87.573,111.027 87.5,109.5C 97.8299,94.0577 97.4965,78.7244 86.5,63.5C 86.2627,62.209 86.596,61.209 87.5,60.5 Z"/></g>
<g><path style="opacity:0.796" fill="#900405" d="M 124.5,72.5 C 123.596,73.209 123.263,74.209 123.5,75.5C 121.559,70.0586 120.392,64.392 120,58.5C 122.007,63.0199 123.507,67.6866 124.5,72.5 Z"/></g>
<g><path style="opacity:0.361" fill="#670b04" d="M 87.5,109.5 C 87.573,111.027 86.9063,112.027 85.5,112.5C 85.427,110.973 86.0937,109.973 87.5,109.5 Z"/></g>
<g><path style="opacity:0.722" fill="#8c0806" d="M 107.5,114.5 C 107.328,115.492 107.662,116.158 108.5,116.5C 107.198,119.975 104.865,122.142 101.5,123C 103.752,120.264 105.752,117.431 107.5,114.5 Z"/></g>
<g><path style="opacity:0.073" fill="#141414" d="M 137.5,132.5 C 138.797,133.849 138.63,135.182 137,136.5C 136.421,135.072 136.588,133.738 137.5,132.5 Z"/></g>
<g><path style="opacity:0.196" fill="#350500" d="M 102.5,159.5 C 104.028,159.517 104.528,160.184 104,161.5C 103.283,160.956 102.783,160.289 102.5,159.5 Z"/></g>
</svg>
